<?xml version="1.0" encoding="UTF-8"?>
<svg width="100pt" height="100pt" version="1.1" viewBox="0 0 100 100" xmlns="http://www.w3.org/2000/svg">
 <path d="m31 11.012c-14.984 0-25 12.305-25 26 0 12.848 7.2969 23.953 16.219 32.719s19.57 15.262 26.875 19.031c0.57031 0.28906 1.2422 0.28906 1.8125 0 7.3047-3.7695 17.953-10.266 26.875-19.031 8.9219-8.7617 16.219-19.867 16.219-32.719 0-13.695-10.016-26-25-26-8.8359 0-14.703 4.5039-19 10.594-4.2969-6.0898-10.164-10.594-19-10.594zm0 4c8.5664 0 13.262 4.2734 17.281 11 0.35938 0.60547 1.0117 0.97656 1.7188 0.97656s1.3594-0.37109 1.7188-0.97656c4.0195-6.7266 8.7148-11 17.281-11 12.828 0 21 10.207 21 22 0 11.324-6.5391 21.5-15.031 29.844-8.1836 8.0391-17.961 14.152-24.969 17.844-7.0078-3.6914-16.785-9.8047-24.969-17.844-8.4922-8.3398-15.031-18.52-15.031-29.844 0-11.793 8.1719-22 21-22z"/>
</svg>
